<svg id="Layer_1" data-name="Layer 1" xmlns="http://www.w3.org/2000/svg" viewBox="0 0 1061.1 325.68"><defs><style>.cls-1{fill:#fcfcfc;}</style></defs><path class="cls-1" d="M99.43,236.18l-16.54,44H74.53l-16.6-44h7.73l13,36.63,13.12-36.63Z"/><path class="cls-1" d="M138.46,236.18v44h-7.22v-44Z"/><path class="cls-1" d="M196.63,280.22,186.49,262.6H181v17.62h-7.23v-44H189a19,19,0,0,1,8.59,1.78,12.34,12.34,0,0,1,5.26,4.75,12.94,12.94,0,0,1,1.74,6.65,13.18,13.18,0,0,1-2.5,7.83,12.72,12.72,0,0,1-7.7,4.78l10.9,18.25ZM181,256.84h8c2.71,0,4.74-.68,6.12-2a7.31,7.31,0,0,0,2.06-5.45,7,7,0,0,0-2-5.35q-2-1.94-6.15-1.94h-8Z"/><path class="cls-1" d="M268,236.18v5.89H256.32v38.15h-7.23V242.07H237.31v-5.89Z"/><path class="cls-1" d="M308.28,236.18v28.07c0,3.34.87,5.86,2.62,7.54a10.14,10.14,0,0,0,7.32,2.54q4.75,0,7.39-2.54c1.75-1.68,2.62-4.2,2.62-7.54V236.18h7.23v27.95a16.76,16.76,0,0,1-2.35,9.12,14.58,14.58,0,0,1-6.27,5.58,21.43,21.43,0,0,1-17.33,0,14.24,14.24,0,0,1-6.18-5.58,17.19,17.19,0,0,1-2.28-9.12V236.18Z"/><path class="cls-1" d="M397.17,271.22H378.74l-3.17,9H368l15.77-44.1h8.37L408,280.22h-7.61Zm-2-5.89L388,244.87l-7.23,20.46Z"/><path class="cls-1" d="M447.8,274.39h14.89v5.83H440.58v-44h7.22Z"/><path class="cls-1" d="M543.29,279.11a13.1,13.1,0,0,1-5.58-4.4,11.2,11.2,0,0,1-2-6.66h7.74a6.92,6.92,0,0,0,2.25,4.69,7.94,7.94,0,0,0,5.61,1.84,8.63,8.63,0,0,0,5.82-1.8,5.88,5.88,0,0,0,2.1-4.66,5.09,5.09,0,0,0-1.3-3.61,8.83,8.83,0,0,0-3.23-2.16,50.61,50.61,0,0,0-5.36-1.64,50.06,50.06,0,0,1-7-2.32,11.53,11.53,0,0,1-4.6-3.64,10.57,10.57,0,0,1-1.9-6.59,11.8,11.8,0,0,1,1.9-6.66,12.3,12.3,0,0,1,5.33-4.37,19.39,19.39,0,0,1,7.92-1.52,16.51,16.51,0,0,1,10.48,3.2,11.78,11.78,0,0,1,4.53,8.78h-8a5.8,5.8,0,0,0-2.28-4.12,8.42,8.42,0,0,0-5.51-1.71,7.86,7.86,0,0,0-5.07,1.58,5.53,5.53,0,0,0-2,4.56,4.63,4.63,0,0,0,1.24,3.33,8.55,8.55,0,0,0,3.14,2.06,47.38,47.38,0,0,0,5.19,1.65,52.66,52.66,0,0,1,7.13,2.41,11.81,11.81,0,0,1,4.69,3.7,10.66,10.66,0,0,1,1.93,6.69,12.07,12.07,0,0,1-1.8,6.34,13.16,13.16,0,0,1-5.26,4.78,17.42,17.42,0,0,1-8.14,1.8A19.64,19.64,0,0,1,543.29,279.11Z"/><path class="cls-1" d="M608.05,242v12.93h15.21v5.89H608.05v13.5h17.11v5.89H600.82v-44.1h24.34V242Z"/><path class="cls-1" d="M682.69,280.22,672.55,262.6H667v17.62h-7.23v-44H675a19,19,0,0,1,8.59,1.78,12.34,12.34,0,0,1,5.26,4.75,12.94,12.94,0,0,1,1.74,6.65,13.18,13.18,0,0,1-2.5,7.83,12.72,12.72,0,0,1-7.7,4.78l10.9,18.25ZM667,256.84h8c2.71,0,4.74-.68,6.12-2a7.31,7.31,0,0,0,2.05-5.45,7,7,0,0,0-2-5.35q-2-1.94-6.15-1.94h-8Z"/><path class="cls-1" d="M763.6,236.18l-16.53,44H738.7l-16.6-44h7.73l13,36.63L756,236.18Z"/><path class="cls-1" d="M802.63,236.18v44h-7.22v-44Z"/><path class="cls-1" d="M838.53,246.51a21.54,21.54,0,0,1,8.17-8,24.06,24.06,0,0,1,23.83.57,19.75,19.75,0,0,1,8,9.79H869.8a11.62,11.62,0,0,0-4.75-5.19,14.1,14.1,0,0,0-7-1.71,15.37,15.37,0,0,0-7.8,2,13.62,13.62,0,0,0-5.35,5.64,19.83,19.83,0,0,0,0,17.11,13.82,13.82,0,0,0,5.35,5.67,15.19,15.19,0,0,0,7.8,2,14.1,14.1,0,0,0,7-1.71,11.64,11.64,0,0,0,4.75-5.2h8.68a19.5,19.5,0,0,1-8,9.76A23.17,23.17,0,0,1,858,280.6a22.8,22.8,0,0,1-11.35-2.88,21.61,21.61,0,0,1-8.14-8,23.84,23.84,0,0,1,0-23.19Z"/><path class="cls-1" d="M919.92,242v12.93h15.21v5.89H919.92v13.5H937v5.89H912.7v-44.1H937V242Z"/><path class="cls-1" d="M978.21,279.11a13.07,13.07,0,0,1-5.57-4.4,11.2,11.2,0,0,1-2-6.66h7.73a7,7,0,0,0,2.25,4.69,8,8,0,0,0,5.61,1.84,8.65,8.65,0,0,0,5.83-1.8,5.9,5.9,0,0,0,2.09-4.66,5.09,5.09,0,0,0-1.3-3.61,8.74,8.74,0,0,0-3.23-2.16,49.88,49.88,0,0,0-5.36-1.64,50.51,50.51,0,0,1-7-2.32,11.57,11.57,0,0,1-4.59-3.64,10.51,10.51,0,0,1-1.9-6.59,11.72,11.72,0,0,1,1.9-6.66,12.27,12.27,0,0,1,5.32-4.37,19.39,19.39,0,0,1,7.92-1.52,16.54,16.54,0,0,1,10.49,3.2,11.85,11.85,0,0,1,4.53,8.78h-8a5.75,5.75,0,0,0-2.27-4.12,8.47,8.47,0,0,0-5.52-1.71,7.86,7.86,0,0,0-5.07,1.58,5.52,5.52,0,0,0-2,4.56,4.63,4.63,0,0,0,1.23,3.33,8.63,8.63,0,0,0,3.14,2.06,47.67,47.67,0,0,0,5.2,1.65,52.46,52.46,0,0,1,7.12,2.41,11.81,11.81,0,0,1,4.69,3.7,10.66,10.66,0,0,1,1.94,6.69,12.08,12.08,0,0,1-1.81,6.34,13.09,13.09,0,0,1-5.26,4.78,17.39,17.39,0,0,1-8.14,1.8A19.67,19.67,0,0,1,978.21,279.11Z"/><path class="cls-1" d="M196.76,75.25v29.92H245V133H196.76v32.45h54.58v28.87H160.73V46.38h90.61V75.25Z"/><path class="cls-1" d="M401.1,46.38,348.63,194.31H303.54L251.07,46.38h38.35l36.67,111.68L363,46.38Z"/><path class="cls-1" d="M439.06,75.25v29.92h48.25V133H439.06v32.45h54.57v28.87H403V46.38h90.6V75.25Z"/><path class="cls-1" d="M583.76,194.31,553,138.46h-8.64v55.85h-36V46.38H568.8q17.48,0,29.81,6.12t18.44,16.75A46.75,46.75,0,0,1,623.16,93a44,44,0,0,1-8.32,26.34q-8.33,11.59-24.55,16.44l34.14,58.58ZM544.35,113h22.34q9.9,0,14.85-4.85t5-13.69q0-8.43-5-13.28T566.69,76.3H544.35Z"/><path class="cls-1" d="M720.49,168.18H665.28l-8.85,26.13H618.71L672.23,46.38H714l53.52,147.93H729.34Zm-9.28-27.82L692.88,86.21l-18.12,54.15Z"/><path class="cls-1" d="M859.36,93.48A26.93,26.93,0,0,0,847.88,82.2a37.68,37.68,0,0,0-17.59-3.89q-17.5,0-28,11.48t-10.53,30.66q0,20.45,11.06,31.92t30.45,11.49q13.28,0,22.44-6.75t13.38-19.38H823.33V111.18h78.39v33.5a70.65,70.65,0,0,1-13.59,25.07,71.63,71.63,0,0,1-24.34,18.76q-14.74,7.17-33.29,7.17-21.91,0-39.09-9.59a68.26,68.26,0,0,1-26.76-26.66q-9.58-17.07-9.59-39t9.59-39.09A68.3,68.3,0,0,1,791.3,54.6q17.07-9.59,39-9.59,26.55,0,44.77,12.86t24.13,35.61Z"/><path class="cls-1" d="M946.83,75.25v29.92h48.26V133H946.83v32.45h54.58v28.87H910.8V46.38h90.61V75.25Z"/><path class="cls-1" d="M94,166.49h57.72v27.82H57.93V46.38H94Z"/><path class="cls-1" d="M1021.94,27.82v1.82h-4.68V45H1015V29.64h-4.71V27.82Z"/><path class="cls-1" d="M1042.15,27.94V45h-2.25V32.28L1034.23,45h-1.58L1027,32.26V45h-2.24V27.94h2.41l6.32,14.11,6.31-14.11Z"/></svg>