<svg id="Layer_1" data-name="Layer 1" xmlns="http://www.w3.org/2000/svg" viewBox="0 0 1058.65 684.47"><defs><style>.cls-1{fill:#fbc91c;}.cls-2{fill:#fcfcfc;}</style></defs><path class="cls-1" d="M679.51,223.73H613a83.71,83.71,0,1,0-167.41,0H379.14a150.19,150.19,0,1,1,300.37,0Z"/><path class="cls-1" d="M613,223.73a83.71,83.71,0,1,1-167.41,0Z"/><path class="cls-2" d="M99.09,572.45l-16.54,44H74.19l-16.6-44h7.72l13.06,36.63,13.12-36.63Z"/><path class="cls-2" d="M138.12,572.45v44H130.9v-44Z"/><path class="cls-2" d="M196.29,616.49l-10.14-17.62h-5.51v17.62h-7.23v-44h15.21a18.85,18.85,0,0,1,8.59,1.78,12.27,12.27,0,0,1,5.26,4.75,12.92,12.92,0,0,1,1.74,6.65,13.2,13.2,0,0,1-2.5,7.83,12.76,12.76,0,0,1-7.7,4.78l10.9,18.25Zm-15.65-23.38h8c2.71,0,4.74-.68,6.12-2a7.31,7.31,0,0,0,2-5.45,7,7,0,0,0-2-5.35q-2-1.93-6.15-1.94h-8Z"/><path class="cls-2" d="M267.7,572.45v5.89H256v38.15h-7.23V578.34H237v-5.89Z"/><path class="cls-2" d="M307.94,572.45v28.07q0,5,2.62,7.54a10.14,10.14,0,0,0,7.32,2.54q4.75,0,7.39-2.54t2.62-7.54V572.45h7.23v27.94a16.78,16.78,0,0,1-2.35,9.13,14.58,14.58,0,0,1-6.27,5.58,21.43,21.43,0,0,1-17.33,0,14.24,14.24,0,0,1-6.18-5.58,17.2,17.2,0,0,1-2.28-9.13V572.45Z"/><path class="cls-2" d="M396.83,607.49H378.4l-3.17,9h-7.54l15.77-44.1h8.37l15.78,44.1H400Zm-2-5.89-7.16-20.47-7.23,20.47Z"/><path class="cls-2" d="M447.46,610.66h14.89v5.83H440.24v-44h7.22Z"/><path class="cls-2" d="M543,615.38a13,13,0,0,1-5.58-4.4,11.2,11.2,0,0,1-2-6.66h7.74a6.94,6.94,0,0,0,2.25,4.69,7.91,7.91,0,0,0,5.6,1.84,8.59,8.59,0,0,0,5.83-1.81,5.83,5.83,0,0,0,2.09-4.65,5.13,5.13,0,0,0-1.29-3.62,8.89,8.89,0,0,0-3.24-2.15A47.75,47.75,0,0,0,549,597a49.75,49.75,0,0,1-7-2.31,11.53,11.53,0,0,1-4.6-3.64,10.59,10.59,0,0,1-1.9-6.59,11.78,11.78,0,0,1,1.9-6.66,12.13,12.13,0,0,1,5.32-4.37,19.48,19.48,0,0,1,7.93-1.52,16.51,16.51,0,0,1,10.48,3.2,11.78,11.78,0,0,1,4.53,8.78h-8a5.8,5.8,0,0,0-2.28-4.12,8.42,8.42,0,0,0-5.51-1.71,7.84,7.84,0,0,0-5.07,1.58,5.53,5.53,0,0,0-2,4.56,4.65,4.65,0,0,0,1.24,3.33,8.67,8.67,0,0,0,3.14,2.06,47.38,47.38,0,0,0,5.19,1.65,54.77,54.77,0,0,1,7.13,2.4,11.92,11.92,0,0,1,4.69,3.71,10.66,10.66,0,0,1,1.93,6.69,12,12,0,0,1-1.8,6.33,13.11,13.11,0,0,1-5.26,4.79,17.43,17.43,0,0,1-8.15,1.8A19.62,19.62,0,0,1,543,615.38Z"/><path class="cls-2" d="M607.71,578.28v12.93h15.21v5.89H607.71v13.5h17.1v5.89H600.48v-44.1h24.33v5.89Z"/><path class="cls-2" d="M682.35,616.49l-10.14-17.62H666.7v17.62h-7.23v-44h15.21a18.85,18.85,0,0,1,8.59,1.78,12.33,12.33,0,0,1,5.26,4.75,12.92,12.92,0,0,1,1.74,6.65,13.2,13.2,0,0,1-2.5,7.83,12.76,12.76,0,0,1-7.7,4.78L691,616.49ZM666.7,593.11h8c2.71,0,4.74-.68,6.12-2a7.31,7.31,0,0,0,2.05-5.45,7,7,0,0,0-2-5.35q-2-1.93-6.15-1.94h-8Z"/><path class="cls-2" d="M763.26,572.45l-16.53,44h-8.37l-16.6-44h7.73l13,36.63,13.12-36.63Z"/><path class="cls-2" d="M802.29,572.45v44h-7.22v-44Z"/><path class="cls-2" d="M838.19,582.78a21.54,21.54,0,0,1,8.17-8,24.06,24.06,0,0,1,23.83.57,19.75,19.75,0,0,1,7.95,9.79h-8.68a11.62,11.62,0,0,0-4.75-5.19,14.12,14.12,0,0,0-7-1.71,15.36,15.36,0,0,0-7.79,2,13.62,13.62,0,0,0-5.35,5.64,19.83,19.83,0,0,0,0,17.11,13.82,13.82,0,0,0,5.35,5.67,15.18,15.18,0,0,0,7.79,2,14.12,14.12,0,0,0,7-1.72,11.62,11.62,0,0,0,4.75-5.19h8.68a19.54,19.54,0,0,1-7.95,9.76,23.18,23.18,0,0,1-12.52,3.42A22.67,22.67,0,0,1,846.33,614a21.51,21.51,0,0,1-8.14-8,23.84,23.84,0,0,1,0-23.19Z"/><path class="cls-2" d="M919.58,578.28v12.93h15.21v5.89H919.58v13.5h17.11v5.89H912.36v-44.1h24.33v5.89Z"/><path class="cls-2" d="M977.87,615.38a13.07,13.07,0,0,1-5.57-4.4,11.2,11.2,0,0,1-2-6.66H978a7,7,0,0,0,2.25,4.69,8,8,0,0,0,5.61,1.84,8.62,8.62,0,0,0,5.83-1.81,5.86,5.86,0,0,0,2.09-4.65,5.13,5.13,0,0,0-1.3-3.62,8.85,8.85,0,0,0-3.23-2.15,48,48,0,0,0-5.36-1.65,50.65,50.65,0,0,1-7-2.31A11.5,11.5,0,0,1,972.3,591a10.53,10.53,0,0,1-1.9-6.59,11.7,11.7,0,0,1,1.9-6.66,12.08,12.08,0,0,1,5.32-4.37,19.39,19.39,0,0,1,7.92-1.52,16.54,16.54,0,0,1,10.49,3.2,11.85,11.85,0,0,1,4.53,8.78h-8a5.73,5.73,0,0,0-2.28-4.12,8.42,8.42,0,0,0-5.51-1.71,7.86,7.86,0,0,0-5.07,1.58,5.52,5.52,0,0,0-2,4.56A4.64,4.64,0,0,0,979,587.5a8.76,8.76,0,0,0,3.14,2.06,48.11,48.11,0,0,0,5.19,1.65,53.74,53.74,0,0,1,7.13,2.4,11.92,11.92,0,0,1,4.69,3.71,10.66,10.66,0,0,1,1.93,6.69,12,12,0,0,1-1.8,6.33,13,13,0,0,1-5.26,4.79,17.39,17.39,0,0,1-8.14,1.8A19.67,19.67,0,0,1,977.87,615.38Z"/><path class="cls-2" d="M196.42,411.52v29.92h48.26v27.82H196.42V501.7H251v28.87H160.39V382.65H251v28.87Z"/><path class="cls-2" d="M400.76,382.65,348.29,530.57H303.2L250.73,382.65h38.35l36.67,111.68,36.87-111.68Z"/><path class="cls-2" d="M438.71,411.52v29.92H487v27.82H438.71V501.7h54.58v28.87H402.68V382.65h90.61v28.87Z"/><path class="cls-2" d="M583.41,530.57l-30.76-55.84H544v55.84H508V382.65h60.47q17.49,0,29.82,6.11t18.44,16.75a46.81,46.81,0,0,1,6.11,23.71,44.08,44.08,0,0,1-8.32,26.34Q606.18,467.16,590,472l34.14,58.58ZM544,449.24h22.34q9.9,0,14.85-4.85t4.95-13.69q0-8.43-4.95-13.28t-14.85-4.85H544Z"/><path class="cls-2" d="M720.15,504.45H664.94l-8.85,26.12H618.37l53.52-147.92h41.73l53.52,147.92H729Zm-9.28-27.82-18.33-54.15-18.12,54.15Z"/><path class="cls-2" d="M859,429.74a27,27,0,0,0-11.48-11.27,37.68,37.68,0,0,0-17.59-3.9q-17.51,0-28,11.49t-10.53,30.66q0,20.44,11.06,31.92t30.45,11.48q13.27,0,22.44-6.74T868.72,474H823V447.45h78.39V481A70.65,70.65,0,0,1,887.79,506a71.72,71.72,0,0,1-24.34,18.76q-14.75,7.15-33.29,7.16-21.92,0-39.09-9.59a68.17,68.17,0,0,1-26.76-26.65q-9.59-17.07-9.59-39t9.59-39.09A68.3,68.3,0,0,1,791,390.87q17.07-9.58,39-9.59,26.53,0,44.77,12.85t24.13,35.61Z"/><path class="cls-2" d="M946.49,411.52v29.92h48.25v27.82H946.49V501.7h54.57v28.87h-90.6V382.65h90.6v28.87Z"/><path class="cls-2" d="M93.62,502.76h57.72v27.81H57.59V382.65h36Z"/><path class="cls-2" d="M1021.6,365.46v1.82h-4.69v15.37h-2.24V367.28H1010v-1.82Z"/><path class="cls-2" d="M1041.81,365.58v17.07h-2.25V369.92l-5.67,12.73h-1.58l-5.7-12.75v12.75h-2.25V365.58h2.42l6.32,14.11,6.31-14.11Z"/></svg>