<svg id="Layer_1" data-name="Layer 1" xmlns="http://www.w3.org/2000/svg" viewBox="0 0 1322.21 1029.52"><defs><style>.cls-1{fill:#454545;}</style></defs><path class="cls-1" d="M1261,647.49H995.42c0-184.72-149.7-334.36-334.35-334.36S326.72,462.77,326.72,647.49H61.23c0-331.33,268.59-599.91,599.84-599.91S1261,316.16,1261,647.49Z"/><path class="cls-1" d="M995.42,647.49c0,184.65-149.7,334.35-334.35,334.35S326.72,832.14,326.72,647.49Z"/><path class="cls-1" d="M1124.89,100.27v4.3h-11.06v36.27h-5.29V104.57h-11.12v-4.3Z"/><path class="cls-1" d="M1172.57,100.56v40.28h-5.3v-30l-13.39,30h-3.73l-13.44-30.1v30.1h-5.3V100.56h5.71l14.9,33.29,14.9-33.29Z"/></svg>