<svg id="Layer_1" data-name="Layer 1" xmlns="http://www.w3.org/2000/svg" viewBox="0 0 1309.99 1020"><defs><style>.cls-1{fill:#fcfcfc;}</style></defs><path class="cls-1" d="M1255,642.76H989.38C989.38,458,839.65,308.33,655,308.33S320.54,458,320.54,642.76H55c0-331.4,268.63-600,600-600S1255,311.36,1255,642.76Z"/><path class="cls-1" d="M989.38,642.76c0,184.69-149.73,334.42-334.42,334.42S320.54,827.45,320.54,642.76Z"/><path class="cls-1" d="M1124.89,100.27v4.3h-11.06v36.27h-5.29V104.57h-11.12v-4.3Z"/><path class="cls-1" d="M1172.57,100.56v40.28h-5.3v-30l-13.39,30h-3.73l-13.44-30.1v30.1h-5.3V100.56h5.71l14.9,33.29,14.9-33.29Z"/></svg>