<svg id="Layer_1" data-name="Layer 1" xmlns="http://www.w3.org/2000/svg" viewBox="0 0 1276.13 993.63"><defs><style>.cls-1{fill:#fbc91c;}</style></defs><path class="cls-1" d="M1238.06,629.57H972.45c0-184.76-149.73-334.42-334.42-334.42S303.61,444.81,303.61,629.57H38.06c0-331.39,268.64-600,600-600S1238.06,298.18,1238.06,629.57Z"/><path class="cls-1" d="M972.45,629.57C972.45,814.26,822.72,964,638,964S303.61,814.26,303.61,629.57Z"/><path class="cls-1" d="M1124.89,100.27v4.3h-11.06v36.27h-5.29V104.57h-11.12v-4.3Z"/><path class="cls-1" d="M1172.57,100.56v40.28h-5.3v-30l-13.39,30h-3.73l-13.44-30.1v30.1h-5.3V100.56h5.71l14.9,33.29,14.9-33.29Z"/></svg>