<svg id="Layer_1" data-name="Layer 1" xmlns="http://www.w3.org/2000/svg" viewBox="0 0 1421.15 325.68"><defs><style>.cls-1{fill:#111;}</style></defs><path class="cls-1" d="M360.05,195.2H293.57a83.71,83.71,0,0,0-167.41,0H59.69a150.18,150.18,0,1,1,300.36,0Z"/><path class="cls-1" d="M293.57,195.2a83.71,83.71,0,1,1-167.41,0Z"/><path class="cls-1" d="M459.48,236.18l-16.53,44h-8.37l-16.6-44h7.73l13.05,36.63,13.12-36.63Z"/><path class="cls-1" d="M498.52,236.18v44h-7.23v-44Z"/><path class="cls-1" d="M556.69,280.22,546.55,262.6H541v17.62h-7.22v-44H549A18.9,18.9,0,0,1,557.6,238a12.28,12.28,0,0,1,5.26,4.75,13,13,0,0,1,1.75,6.65,13.19,13.19,0,0,1-2.51,7.83,12.69,12.69,0,0,1-7.7,4.78l10.9,18.25ZM541,256.84h8q4.05,0,6.11-2a7.31,7.31,0,0,0,2.06-5.45,7,7,0,0,0-2-5.35q-2-1.94-6.14-1.94h-8Z"/><path class="cls-1" d="M628.09,236.18v5.89H616.37v38.15h-7.22V242.07H597.36v-5.89Z"/><path class="cls-1" d="M668.33,236.18v28.07c0,3.34.88,5.86,2.63,7.54a10.1,10.1,0,0,0,7.32,2.54q4.76,0,7.38-2.54c1.75-1.68,2.63-4.2,2.63-7.54V236.18h7.22v27.95a16.85,16.85,0,0,1-2.34,9.12,14.66,14.66,0,0,1-6.28,5.58,21.41,21.41,0,0,1-17.32,0,14.24,14.24,0,0,1-6.18-5.58,17.19,17.19,0,0,1-2.28-9.12V236.18Z"/><path class="cls-1" d="M757.23,271.22H738.79l-3.17,9h-7.54l15.78-44.1h8.36L768,280.22h-7.6Zm-2-5.89L748,244.87l-7.22,20.46Z"/><path class="cls-1" d="M807.86,274.39h14.89v5.83H800.63v-44h7.23Z"/><path class="cls-1" d="M903.34,279.11a13.07,13.07,0,0,1-5.57-4.4,11.2,11.2,0,0,1-2-6.66h7.73a7,7,0,0,0,2.25,4.69,8,8,0,0,0,5.61,1.84,8.65,8.65,0,0,0,5.83-1.8,5.9,5.9,0,0,0,2.09-4.66,5.09,5.09,0,0,0-1.3-3.61,8.74,8.74,0,0,0-3.23-2.16,49.88,49.88,0,0,0-5.36-1.64,50.51,50.51,0,0,1-7-2.32,11.57,11.57,0,0,1-4.59-3.64,10.51,10.51,0,0,1-1.9-6.59,11.72,11.72,0,0,1,1.9-6.66,12.27,12.27,0,0,1,5.32-4.37,19.39,19.39,0,0,1,7.92-1.52,16.54,16.54,0,0,1,10.49,3.2,11.85,11.85,0,0,1,4.53,8.78h-8a5.8,5.8,0,0,0-2.28-4.12,8.47,8.47,0,0,0-5.52-1.71,7.86,7.86,0,0,0-5.07,1.58,5.52,5.52,0,0,0-2,4.56,4.63,4.63,0,0,0,1.23,3.33,8.63,8.63,0,0,0,3.14,2.06,47.67,47.67,0,0,0,5.2,1.65,52.46,52.46,0,0,1,7.12,2.41,11.81,11.81,0,0,1,4.69,3.7,10.66,10.66,0,0,1,1.94,6.69,12.08,12.08,0,0,1-1.81,6.34,13.09,13.09,0,0,1-5.26,4.78,17.39,17.39,0,0,1-8.14,1.8A19.67,19.67,0,0,1,903.34,279.11Z"/><path class="cls-1" d="M968.1,242v12.93h15.21v5.89H968.1v13.5h17.11v5.89H960.88v-44.1h24.33V242Z"/><path class="cls-1" d="M1042.74,280.22l-10.13-17.62h-5.52v17.62h-7.22v-44h15.21a18.9,18.9,0,0,1,8.58,1.78,12.28,12.28,0,0,1,5.26,4.75,13,13,0,0,1,1.75,6.65,13.19,13.19,0,0,1-2.51,7.83,12.69,12.69,0,0,1-7.7,4.78l10.9,18.25Zm-15.65-23.38h8q4.05,0,6.11-2a7.31,7.31,0,0,0,2.06-5.45,7,7,0,0,0-2-5.35q-2-1.94-6.14-1.94h-8Z"/><path class="cls-1" d="M1123.66,236.18l-16.54,44h-8.36l-16.6-44h7.73l13,36.63,13.12-36.63Z"/><path class="cls-1" d="M1162.69,236.18v44h-7.22v-44Z"/><path class="cls-1" d="M1198.59,246.51a21.47,21.47,0,0,1,8.17-8,22.82,22.82,0,0,1,11.31-2.88,23.05,23.05,0,0,1,12.51,3.45,19.71,19.71,0,0,1,8,9.79h-8.68a11.69,11.69,0,0,0-4.76-5.19,14.08,14.08,0,0,0-7-1.71,15.36,15.36,0,0,0-7.79,2,13.64,13.64,0,0,0-5.36,5.64,19.93,19.93,0,0,0,0,17.11,13.84,13.84,0,0,0,5.36,5.67,15.18,15.18,0,0,0,7.79,2,14.08,14.08,0,0,0,7-1.71,11.72,11.72,0,0,0,4.76-5.2h8.68a19.47,19.47,0,0,1-8,9.76,23.12,23.12,0,0,1-12.51,3.42,22.77,22.77,0,0,1-11.34-2.88,21.54,21.54,0,0,1-8.14-8,23.84,23.84,0,0,1,0-23.19Z"/><path class="cls-1" d="M1280,242v12.93h15.2v5.89H1280v13.5h17.1v5.89h-24.33v-44.1h24.33V242Z"/><path class="cls-1" d="M1338.27,279.11a13,13,0,0,1-5.58-4.4,11.2,11.2,0,0,1-2-6.66h7.74a6.92,6.92,0,0,0,2.25,4.69,7.91,7.91,0,0,0,5.6,1.84,8.64,8.64,0,0,0,5.83-1.8,5.87,5.87,0,0,0,2.09-4.66,5.08,5.08,0,0,0-1.29-3.61,8.78,8.78,0,0,0-3.24-2.16,50.31,50.31,0,0,0-5.35-1.64,49.61,49.61,0,0,1-7-2.32,11.53,11.53,0,0,1-4.6-3.64,10.57,10.57,0,0,1-1.9-6.59,11.8,11.8,0,0,1,1.9-6.66,12.27,12.27,0,0,1,5.32-4.37,19.48,19.48,0,0,1,7.93-1.52,16.51,16.51,0,0,1,10.48,3.2,11.78,11.78,0,0,1,4.53,8.78h-8a5.8,5.8,0,0,0-2.28-4.12,8.42,8.42,0,0,0-5.51-1.71,7.84,7.84,0,0,0-5.07,1.58,5.53,5.53,0,0,0-2,4.56,4.63,4.63,0,0,0,1.24,3.33,8.55,8.55,0,0,0,3.14,2.06,47.38,47.38,0,0,0,5.19,1.65,53.15,53.15,0,0,1,7.13,2.41,11.81,11.81,0,0,1,4.69,3.7,10.66,10.66,0,0,1,1.93,6.69,12.07,12.07,0,0,1-1.8,6.34,13.16,13.16,0,0,1-5.26,4.78,17.43,17.43,0,0,1-8.15,1.8A19.62,19.62,0,0,1,1338.27,279.11Z"/><path class="cls-1" d="M556.82,75.25v29.92h48.25V133H556.82v32.45h54.57v28.87h-90.6V46.38h90.6V75.25Z"/><path class="cls-1" d="M761.16,46.38,708.69,194.31H663.6L611.13,46.38h38.35l36.66,111.68L723,46.38Z"/><path class="cls-1" d="M799.11,75.25v29.92h48.26V133H799.11v32.45h54.58v28.87H763.08V46.38h90.61V75.25Z"/><path class="cls-1" d="M943.81,194.31l-30.76-55.85h-8.64v55.85h-36V46.38h60.47q17.49,0,29.82,6.12t18.44,16.75A46.75,46.75,0,0,1,983.22,93a44,44,0,0,1-8.33,26.34q-8.32,11.59-24.54,16.44l34.13,58.58ZM904.41,113h22.33q9.9,0,14.86-4.85t4.95-13.69q0-8.43-4.95-13.28T926.74,76.3H904.41Z"/><path class="cls-1" d="M1080.54,168.18h-55.21l-8.85,26.13H978.76l53.53-147.93H1074l53.52,147.93h-38.14Zm-9.27-27.82-18.33-54.15-18.12,54.15Z"/><path class="cls-1" d="M1219.42,93.48a27,27,0,0,0-11.49-11.28,37.65,37.65,0,0,0-17.59-3.89q-17.49,0-28,11.48t-10.54,30.66q0,20.45,11.06,31.92t30.45,11.49q13.28,0,22.44-6.75t13.38-19.38h-45.72V111.18h78.38v33.5a70.65,70.65,0,0,1-13.59,25.07,71.53,71.53,0,0,1-24.34,18.76q-14.74,7.17-33.29,7.17-21.91,0-39.09-9.59a68.26,68.26,0,0,1-26.76-26.66q-9.59-17.07-9.59-39t9.59-39.09a68.26,68.26,0,0,1,26.66-26.76q17.07-9.59,39-9.59,26.55,0,44.78,12.86t24.13,35.61Z"/><path class="cls-1" d="M1306.88,75.25v29.92h48.26V133h-48.26v32.45h54.58v28.87h-90.6V46.38h90.6V75.25Z"/><path class="cls-1" d="M454,166.49h57.73v27.82H418V46.38h36Z"/><path class="cls-1" d="M1382,27.82v1.82h-4.69V45h-2.24V29.64h-4.72V27.82Z"/><path class="cls-1" d="M1402.2,27.94V45H1400V32.28L1394.28,45h-1.58L1387,32.26V45h-2.24V27.94h2.42l6.31,14.11,6.32-14.11Z"/></svg>